<svg id="Capa_1" enable-background="new 0 0 512 512" height="512" viewBox="0 0 512 512" width="512" xmlns="http://www.w3.org/2000/svg"><g><path d="m457 497h-402c-22.091 0-40-17.909-40-40v-402c0-22.091 17.909-40 40-40h402c22.091 0 40 17.909 40 40v402c0 22.091-17.909 40-40 40z" fill="#f1f1f4"/><path d="m457 15h-201v482h201c22.091 0 40-17.909 40-40v-402c0-22.091-17.909-40-40-40z" fill="#e2dff4"/><path d="m457 512h-402c-30.327 0-55-24.673-55-55v-402c0-30.327 24.673-55 55-55h402c30.327 0 55 24.673 55 55v402c0 30.327-24.673 55-55 55zm-402-482c-13.785 0-25 11.215-25 25v402c0 13.785 11.215 25 25 25h402c13.785 0 25-11.215 25-25v-402c0-13.785-11.215-25-25-25z" fill="#5f6c75"/><path d="m457 0h-201v30h201c13.785 0 25 11.215 25 25v402c0 13.785-11.215 25-25 25h-201v30h201c30.327 0 55-24.673 55-55v-402c0-30.327-24.673-55-55-55z" fill="#424c52"/><path d="m291 68.5h-70c-19.299 0-35 15.701-35 35v40h140v-40c0-19.299-15.701-35-35-35z" fill="#5f6c75"/><path d="m291 68.5h-35v75h70v-40c0-19.299-15.701-35-35-35z" fill="#424c52"/><path d="m387.325 173.799c-4.452-17.807-20.451-30.299-38.806-30.299h-185.038c-18.355 0-34.354 12.492-38.806 30.299l-18.675 74.701h300z" fill="#bdfdff"/><path d="m348.519 143.5h-92.519v105h150l-18.675-74.701c-4.452-17.807-20.451-30.299-38.806-30.299z" fill="#aed0ff"/><path d="m395.086 266.69-22.313-89.253c-2.787-11.149-12.761-18.937-24.253-18.937h-185.039c-11.493 0-21.466 7.787-24.253 18.937l-22.313 89.253-29.104-7.276 22.313-89.254c6.132-24.529 28.074-41.66 53.358-41.66h185.038c25.284 0 47.226 17.131 53.358 41.66l22.313 89.254z" fill="#ffdd54"/><path d="m348.519 128.5h-92.519v30h92.519c11.493 0 21.466 7.787 24.253 18.937l22.313 89.253 29.104-7.276-22.313-89.254c-6.131-24.529-28.073-41.66-53.357-41.66z" fill="#ffb454"/><path d="m351 263.5c-8.284 0-15-6.716-15-15 0-19.299-15.701-35-35-35s-35 15.701-35 35c0 8.284-6.716 15-15 15s-15-6.716-15-15c0-35.841 29.159-65 65-65s65 29.159 65 65c0 8.284-6.716 15-15 15z" fill="#5f6c75"/><path d="m301 183.5c-17.454 0-33.311 6.928-45 18.163v60.965c5.822-2.061 10-7.6 10-14.128 0-19.299 15.701-35 35-35s35 15.701 35 35c0 8.284 6.716 15 15 15s15-6.716 15-15c0-35.841-29.159-65-65-65z" fill="#424c52"/><path d="m163.5 443.5h-35c-13.807 0-25-11.193-25-25v-65h85v65c0 13.807-11.193 25-25 25z" fill="#5f6c75"/><path d="m383.5 443.5h-35c-13.807 0-25-11.193-25-25v-65h85v65c0 13.807-11.193 25-25 25z" fill="#424c52"/><path d="m406 383.5h-150-150c-24.853 0-45-20.147-45-45v-60c0-24.853 20.147-45 45-45h300c24.853 0 45 20.147 45 45v60c0 24.853-20.147 45-45 45z" fill="#ffdd54"/><path d="m406 233.5h-150v150h150c24.853 0 45-20.147 45-45v-60c0-24.853-20.147-45-45-45z" fill="#ffb454"/><path d="m396 323.5h-30c-8.284 0-15-6.716-15-15s6.716-15 15-15h30c8.284 0 15 6.716 15 15s-6.716 15-15 15z" fill="#ff8e00"/><path d="m146 323.5h-30c-8.284 0-15-6.716-15-15s6.716-15 15-15h30c8.284 0 15 6.716 15 15s-6.716 15-15 15z" fill="#ff8e00"/><path d="m311 353h-110v-34.5c0-13.807 11.193-25 25-25h60c13.807 0 25 11.193 25 25z" fill="#f1f1f4"/><path d="m286 293.5h-30v59.5h55v-34.5c0-13.807-11.193-25-25-25z" fill="#e2dff4"/></g></svg>